<svg xmlns="http://www.w3.org/2000/svg" x="0px" y="0px"
width="50" height="50"
viewBox="0 0 172 172"
style=" fill:#000000;">
<g 
    fill="none" 
    fill-rule="nonzero" 
    stroke="none" 
    stroke-width="1" 
    stroke-linecap="butt" 
    stroke-linejoin="miter" 
    stroke-miterlimit="10" 
    stroke-dasharray="" 
    stroke-dashoffset="0" 
    font-family="none" 
    font-weight="none" 
    font-size="none" 
    text-anchor="none" 
    style="mix-blend-mode: normal">
    
    <path 
        d="M0,172v-172h172v172z" 
        fill="none">
    </path>
    <g fill="#ffffff">
        <path d="M131.63375,6.78594c-3.5475,0.08063 -5.38844,1.46469 -5.38844,1.46469l-83.36625,83.71562c-2.06938,2.06938 -2.06938,5.50938 0,7.57875l29.57594,29.57594c2.06938,2.06938 5.50938,2.06938 7.57875,0l83.70219,-83.36625c0,0 7.22938,-9.63469 -10.32,-27.18406c-9.86312,-9.86313 -17.22687,-11.89219 -21.78219,-11.78469zM46.44,6.88c-1.38406,0 -2.71437,0.16125 -4.01781,0.43c-2.39187,3.17125 -3.72219,12.88656 3.68188,19.995c7.06812,6.79938 15.31875,6.47688 18.18094,4.74344c0.67188,-1.96187 1.075,-4.05812 1.075,-6.24844c0,-10.4275 -8.4925,-18.92 -18.92,-18.92zM34.74938,10.95156c-4.39406,3.46687 -7.22938,8.82844 -7.22938,14.84844c0,10.4275 8.4925,18.92 18.92,18.92c5.46906,0 10.40063,-2.35156 13.8675,-6.07375c-0.95406,0.04031 -1.89469,0.06719 -2.82187,0.06719c-5.02563,0 -10.56188,-1.86781 -15.76219,-6.85312c-6.49031,-6.235 -8.03562,-14.19 -6.97406,-20.90875zM41.30688,109.01844v3.78938c0,3.78937 -1.72,7.22937 -4.12531,9.63469l-28.93094,28.9175c-2.05594,2.06938 -2.05594,5.84531 0,7.91469l4.47469,4.46125c2.06937,2.06938 5.84531,2.06938 7.91469,0l28.9175,-28.9175c2.75469,-2.74125 6.19469,-4.12531 9.98406,-4.12531h3.77594z">
        </path>
    </g>
</g>
</svg>